<svg xmlns="http://www.w3.org/2000/svg" xmlns:xlink="http://www.w3.org/1999/xlink" width="172" height="21" viewBox="384 146 172 21" xmlns:v="https://vecta.io/nano"><style><![CDATA[.B{dominant-baseline:text-after-edge}.C{direction:ltr}.D{unicode-bidi:normal}.E{word-spacing:0px}.F{writing-mode:horizontal-tb}.G{font-family:Roboto-regular, sans-serif}.H{font-size:14px}.I{text-decoration:none solid rgba(59, 59, 61, 0.81)}.J{fill:rgba(59, 59, 61, 0.81)}.K{font-weight:700}.L{fill:#fff}.M{text-decoration:none solid rgb(33, 37, 41)}.N{fill:#212529}.O{text-decoration:none solid rgb(255, 255, 255)}.P{font-size:18px}.Q{font-size:16px}.R{font-size:15px}.S{font-size:12px}.T{text-decoration:none solid rgb(150, 150, 150)}.U{fill:#969696}.V{text-decoration:none solid rgb(159, 159, 159)}.W{fill:#9f9f9f}.X{opacity:0}.Y{opacity:.25}.Z{font-family:Roboto-bold}.a{text-decoration:none solid rgb(233, 233, 233)}.b{fill:#e9e9e9}.c{text-decoration:none solid rgb(0, 0, 0)}.d{fill:rgba(0, 0, 0, 0.314)}.e{stroke:rgba(0, 0, 0, 0.2)}.f{text-decoration:underline solid rgb(13, 110, 253)}.g{text-decoration:none solid rgb(0, 175, 240)}]]></style><g mask="url(#R)"><path d="M0 0h1471.2v5558H0z" class="L"/><g opacity=".5"><path d="M0 0h1471.2v952H0z"/></g><g mask="url(#A)"><path d="M0 0h1471.2v952H0z" class="d"/><mask id="A"><path d="M0 0h1471.2v952H0z" class="L"/></mask><g mask="url(#B)"><mask id="B"><path d="M360.6 28h750v511h-750z" class="L"/></mask><rect width="750" height="511" x="360.6" y="28" rx="4.8" class="L e"/><g fill="rgba(0, 0, 0, 0)"><rect width="348" height="377" x="377.6" y="85" stroke="#e9e9e9" rx="4"/><path d="M378.6 86h346v100h-346z"/></g><image width="346" height="100" preserveAspectRatio="xMidYMid slice" xlink:href="http://localhost:4200/profile_coverjpg.jpg" x="378.6" y="86"/><image xlink:href="http://localhost:4200/assets/images/Profileavatarsm.svg" x="392.6" y="167" width="68" height="68"/><g mask="url(#C)"><mask id="C"><path d="M746.6 86h346v375h-346z" class="L"/></mask><g mask="url(#D)" class="X"><mask id="D"/></g><g mask="url(#E)" class="X"><mask id="E"/></g><g mask="url(#F)" class="X"><mask id="F"/></g><g mask="url(#G)" class="X"><mask id="G"/><g mask="url(#H)"><mask id="H"/></g><g mask="url(#I)"><mask id="I"/></g></g><g mask="url(#J)" class="X"><mask id="J"/></g><g mask="url(#K)" class="X"><mask id="K"/></g><g mask="url(#L)"><mask id="L"><path d="M769.6 278.375h12v9h-12z" class="L"/></mask></g></g><g mask="url(#M)" class="Y"><mask id="M"><path d="M377.6 478h716v1h-716z" class="L"/></mask></g></g></g><g mask="url(#N)"><path d="M0 0h1471.2v952H0z" class="d"/><mask id="N"><path d="M0 0h1471.2v952H0z" class="L"/></mask><g mask="url(#O)"><mask id="O"><path d="M360.6 28h750v656h-750z" class="L"/></mask><rect width="750" height="656" x="360.6" y="28" rx="4.8" class="L e"/><g opacity=".5"><g mask="url(#P)"><mask id="P"><path d="M1084.6 62h1v1h-1z" class="L"/></mask></g></g><g mask="url(#Q)"><mask id="Q"><path d="M361.6 98h748v585h-748z" class="L"/></mask><text letter-spacing="normal" class="B C D E F G H I J K"><tspan xml:space="preserve" x="385.6" y="164.575" textLength="168.68753051757812" lengthAdjust="spacingAndGlyphs">Silvanus Technologies Ltd: </tspan></text><image xlink:href="http://localhost:4200/assets/images/PlatformOnlyfansScreenshot5.svg" x="554.288" y="144" width="189" height="23.337"/></g></g></g><mask id="R"><path d="M0 0h1471.2v5558H0z" class="L"/></mask><g stroke-linecap="square" stroke="#e9e9e9"><path d="M985.6 64v5494M485.6 64v5494"/></g><linearGradient x1="0%" y1="0%" x2="0%" y2="0%" id="S"><stop offset="0%" stop-color="#000" stop-opacity=".41"/><stop offset="100%" stop-color="#000" stop-opacity="0"/></linearGradient><path fill="url(#S)" d="M486.6 64h498v180h-498z"/><image width="498" height="180" preserveAspectRatio="none" xlink:href="http://localhost:4200/profile_coverjpg.jpg" x="486.6" y="64"/><g mask="url(#T)"><mask id="T"><path d="M486.6 1066h498v880h-498z" class="L"/></mask></g><g mask="url(#U)" class="Y"><mask id="U"><path d="M486.6 2050h498v1h-498z" class="L"/></mask></g><g mask="url(#V)"><mask id="V"><path d="M486.6 2227h498v880h-498z" class="L"/></mask></g><g mask="url(#W)" class="Y"><mask id="W"><path d="M486.6 3211h498v1h-498z" class="L"/></mask></g><g mask="url(#X)"><mask id="X"><path d="M486.6 3388h498v880h-498z" class="L"/></mask></g><g mask="url(#Y)" class="Y"><mask id="Y"><path d="M486.6 4372h498v1h-498z" class="L"/></mask></g><g mask="url(#Z)"><mask id="Z"><path d="M486.6 4549h498v880h-498z" class="L"/></mask></g><g mask="url(#a)" class="Y"><mask id="a"><path d="M486.6 5533h498v1h-498z" class="L"/></mask></g><g mask="url(#b)"><mask id="b"><g class="L"><path d="M1018.6 376h120v130h-120z"/><path d="M1048.6 402h60v60h-60z"/></g></mask></g><g mask="url(#c)"><mask id="c"><g class="L"><path d="M1146.6 376h120v130h-120z"/><path d="M1176.6 402h60v60h-60z"/></g></mask></g></g><defs ><style>@font-face{font-family:Roboto-regular;src:url("http://localhost:4200/roboto-v30-latin-regular.woff")} @font-face{font-family:Roboto-bold;src:url("http://localhost:4200/roboto-v30-latin-700.woff")}</style></defs></svg>