<svg xmlns="http://www.w3.org/2000/svg" xmlns:xlink="http://www.w3.org/1999/xlink" width="179" height="18" viewBox="337 136 179 18" xmlns:v="https://vecta.io/nano"><style><![CDATA[.B{dominant-baseline:text-after-edge}.C{direction:ltr}.D{unicode-bidi:normal}.E{word-spacing:0px}.F{writing-mode:horizontal-tb}.G{font-family:Roboto-regular, sans-serif}.H{font-size:14px}.I{text-decoration:none solid rgba(59, 59, 61, 0.81)}.J{fill:rgba(59, 59, 61, 0.81)}.K{font-weight:700}.L{fill:#fff}.M{text-decoration:none solid rgb(33, 37, 41)}.N{fill:#212529}.O{text-decoration:none solid rgb(255, 255, 255)}.P{font-size:18px}.Q{font-size:16px}.R{font-size:15px}.S{font-size:12px}.T{text-decoration:none solid rgb(150, 150, 150)}.U{fill:#969696}.V{text-decoration:none solid rgb(159, 159, 159)}.W{fill:#9f9f9f}.X{opacity:0}.Y{opacity:.25}.Z{font-family:Roboto-bold}.a{text-decoration:none solid rgb(233, 233, 233)}.b{fill:#e9e9e9}.c{text-decoration:none solid rgb(0, 0, 0)}.d{fill:rgba(0, 0, 0, 0.314)}.e{stroke:rgba(0, 0, 0, 0.2)}.f{text-decoration:underline solid rgb(13, 110, 253)}.g{text-decoration:none solid rgb(0, 175, 240)}]]></style><g mask="url(#O)"><path d="M0 0h1340v5558H0z" class="L"/><g opacity=".5"><path d="M0 0h1340v952H0z"/></g><g mask="url(#A)"><path d="M0 0h1340v952H0z" class="d"/><mask id="A"><path d="M0 0h1340v952H0z" class="L"/></mask><g mask="url(#B)"><mask id="B"><path d="M295 28h750v511H295z" class="L"/></mask><rect width="750" height="511" x="295" y="28" rx="4.8" class="L e"/><g fill="rgba(0, 0, 0, 0)"><rect width="348" height="377" x="312" y="85" stroke="#e9e9e9" rx="4"/><path d="M313 86h346v80H313z"/></g><image width="346" height="80" preserveAspectRatio="xMidYMid slice" xlink:href="http://localhost:4200/profile_coverjpg.jpg" x="313" y="86"/><image xlink:href="http://localhost:4200/assets/images/Profileavatarsm.svg" x="327" y="147" width="68" height="68"/><g mask="url(#C)" class="X"><mask id="C"/></g><g mask="url(#D)" class="X"><mask id="D"/></g><g mask="url(#E)" class="X"><mask id="E"/></g><g mask="url(#F)" class="X"><mask id="F"/></g><g mask="url(#G)" class="X"><mask id="G"/></g><g mask="url(#H)" class="X"><mask id="H"/></g><g mask="url(#I)"><mask id="I"><path d="M704 278.375h12v9h-12z" class="L"/></mask></g><g mask="url(#J)" class="Y"><mask id="J"><path d="M312 478h716v1H312z" class="L"/></mask></g></g></g><g mask="url(#K)"><path d="M0 0h1340v952H0z" class="d"/><mask id="K"><path d="M0 0h1340v952H0z" class="L"/></mask><g mask="url(#L)"><mask id="L"><path d="M295 28h750v656H295z" class="L"/></mask><rect width="750" height="656" x="295" y="28" rx="4.8" class="L e"/><g opacity=".5"><g mask="url(#M)"><mask id="M"><path d="M1019 62h1v1h-1z" class="L"/></mask></g></g><g mask="url(#N)"><mask id="N"><path d="M296 98h748v585H296z" class="L"/></mask><text letter-spacing="normal" class="B C D E F G H I J K"><tspan xml:space="preserve" x="320" y="153.4" textLength="19.412506103515625" lengthAdjust="spacingAndGlyphs">1.1</tspan></text><text letter-spacing="normal" class="B C D E F G H I J"><tspan xml:space="preserve" x="339.413" y="153.4" textLength="172.14999389648438" lengthAdjust="spacingAndGlyphs"> Silvanus Technologies Ltd: </tspan></text><image xlink:href="http://localhost:4200/assets/images/PlatformOnlyfans%20Screenshot7.svg" x="511.563" y="140.875" width="71" height="7.25"/></g></g></g><mask id="O"><path d="M0 0h1340v5558H0z" class="L"/></mask><g stroke-linecap="square" stroke="#e9e9e9"><path d="M920 64v5494M420 64v5494"/></g><linearGradient x1="0%" y1="0%" x2="0%" y2="0%" id="P"><stop offset="0%" stop-color="#000" stop-opacity=".41"/><stop offset="100%" stop-color="#000" stop-opacity="0"/></linearGradient><path fill="url(#P)" d="M421 64h498v180H421z"/><image width="498" height="180" preserveAspectRatio="none" xlink:href="http://localhost:4200/profile_coverjpg.jpg" x="421" y="64"/><g mask="url(#Q)"><mask id="Q"><path d="M421 1066h498v880H421z" class="L"/></mask></g><g mask="url(#R)" class="Y"><mask id="R"><path d="M421 2050h498v1H421z" class="L"/></mask></g><g mask="url(#S)"><mask id="S"><path d="M421 2227h498v880H421z" class="L"/></mask></g><g mask="url(#T)" class="Y"><mask id="T"><path d="M421 3211h498v1H421z" class="L"/></mask></g><g mask="url(#U)"><mask id="U"><path d="M421 3388h498v880H421z" class="L"/></mask></g><g mask="url(#V)" class="Y"><mask id="V"><path d="M421 4372h498v1H421z" class="L"/></mask></g><g mask="url(#W)"><mask id="W"><path d="M421 4549h498v880H421z" class="L"/></mask></g><g mask="url(#X)" class="Y"><mask id="X"><path d="M421 5533h498v1H421z" class="L"/></mask></g><g mask="url(#Y)"><mask id="Y"><g class="L"><path d="M953 376h120v130H953z"/><path d="M983 402h60v60h-60z"/></g></mask></g><g mask="url(#Z)"><mask id="Z"><g class="L"><path d="M1081 376h120v130h-120z"/><path d="M1111 402h60v60h-60z"/></g></mask></g></g><defs ><style>@font-face{font-family:Roboto-regular;src:url("http://localhost:4200/roboto-v30-latin-regular.woff")} @font-face{font-family:Roboto-bold;src:url("http://localhost:4200/roboto-v30-latin-700.woff")}</style></defs></svg>