<svg width="16" height="19" viewBox="0 0 16 19" fill="none" xmlns="http://www.w3.org/2000/svg">
<path d="M2.09 18.06C1.82479 18.06 1.57043 17.9546 1.3829 17.7671C1.19536 17.5796 1.09 17.3252 1.09 17.06L0.940003 2.4C0.927962 2.10234 0.974886 1.80525 1.07808 1.52579C1.18127 1.24633 1.33869 0.990038 1.54129 0.77164C1.74389 0.553243 1.98767 0.377054 2.2586 0.253208C2.52954 0.129361 2.82228 0.0603016 3.12 0.05L12.71 0C13.0081 0.00520682 13.3023 0.0690924 13.5757 0.188008C13.8491 0.306923 14.0964 0.478538 14.3035 0.69305C14.5106 0.907563 14.6734 1.16077 14.7826 1.43821C14.8918 1.71565 14.9453 2.01189 14.94 2.31L15.08 16.97C15.0817 17.1452 15.0374 17.3178 14.9514 17.4705C14.8654 17.6232 14.7407 17.7506 14.59 17.84C14.438 17.9278 14.2655 17.974 14.09 17.974C13.9145 17.974 13.742 17.9278 13.59 17.84L7.89 14.68L2.6 17.91C2.44336 17.9975 2.26908 18.0488 2.09 18.06ZM7.85 12.51C8.02377 12.5103 8.19503 12.5514 8.35 12.63L13.06 15.24L12.94 2.29C12.94 2.09 12.81 1.95 12.73 1.96L3.13 2.05C3.05 2.05 2.94 2.18 2.94 2.38L3.06 15.28L7.34 12.65C7.49544 12.561 7.67091 12.5128 7.85 12.51Z" fill="#BFBFBF"/>
</svg>
