<svg width="32" height="35" viewBox="0 0 32 35" fill="none" xmlns="http://www.w3.org/2000/svg">
<path d="M21.3333 3.12869H10.6667C6.25467 3.12869 2.66667 6.99772 2.66667 11.7553V30.4462C2.66667 30.8276 2.80714 31.1933 3.05719 31.4629C3.30724 31.7325 3.64638 31.884 4 31.884H21.3333C25.7453 31.884 29.3333 28.015 29.3333 23.2574V11.7553C29.3333 6.99772 25.7453 3.12869 21.3333 3.12869ZM26.6667 23.2574C26.6667 26.4291 24.2747 29.0085 21.3333 29.0085H5.33333V11.7553C5.33333 8.58357 7.72533 6.00422 10.6667 6.00422H21.3333C24.2747 6.00422 26.6667 8.58357 26.6667 11.7553V23.2574Z" fill="#C9C9C9"/>
<path d="M9.33333 13.1931H22.6667V16.0686H9.33333V13.1931ZM9.33333 18.9441H18.6667V21.8196H9.33333V18.9441Z" fill="#C9C9C9"/>
</svg>
