<svg width="25" height="24" viewBox="0 0 25 24" fill="none" xmlns="http://www.w3.org/2000/svg">
<path d="M10.2778 18C12.102 17.9996 13.8738 17.4054 15.3108 16.312L19.8289 20.708L21.2822 19.294L16.7641 14.898C17.8885 13.4997 18.4995 11.7754 18.5 10C18.5 5.589 14.8113 2 10.2778 2C5.74424 2 2.05554 5.589 2.05554 10C2.05554 14.411 5.74424 18 10.2778 18ZM10.2778 4C13.6787 4 16.4444 6.691 16.4444 10C16.4444 13.309 13.6787 16 10.2778 16C6.87685 16 4.1111 13.309 4.1111 10C4.1111 6.691 6.87685 4 10.2778 4Z" fill="#D9D9D9"/>
</svg>
