<svg width="25" height="24" viewBox="0 0 25 24" fill="none" xmlns="http://www.w3.org/2000/svg">
<path d="M10.6111 18C12.4354 17.9996 14.2071 17.4054 15.6442 16.312L20.1623 20.708L21.6155 19.294L17.0974 14.898C18.2218 13.4997 18.8329 11.7754 18.8333 10C18.8333 5.589 15.1447 2 10.6111 2C6.0776 2 2.3889 5.589 2.3889 10C2.3889 14.411 6.0776 18 10.6111 18ZM10.6111 4C14.012 4 16.7778 6.691 16.7778 10C16.7778 13.309 14.012 16 10.6111 16C7.21021 16 4.44446 13.309 4.44446 10C4.44446 6.691 7.21021 4 10.6111 4Z" fill="#9F9F9F"/>
</svg>
