<svg width="32" height="32" viewBox="0 0 32 32" fill="none" xmlns="http://www.w3.org/2000/svg">
<path d="M16 29.3333C13.9841 29.339 11.9936 28.8829 10.1813 28C9.51808 27.6773 8.88259 27.3005 8.28133 26.8733L8.09866 26.74C6.44512 25.5194 5.0932 23.9363 4.14666 22.112C3.16764 20.2238 2.65987 18.1269 2.66666 16C2.66666 8.63599 8.636 2.66666 16 2.66666C23.364 2.66666 29.3333 8.63599 29.3333 16C29.34 18.1258 28.8328 20.2218 27.8547 22.1093C26.9095 23.9326 25.5594 25.5152 23.908 26.736C23.2853 27.192 22.624 27.5933 21.932 27.936L21.8253 27.9893C20.0119 28.8769 18.019 29.3367 16 29.3333ZM16 22.6667C15.02 22.6647 14.0586 22.9335 13.2217 23.4434C12.3849 23.9532 11.7051 24.6843 11.2573 25.556C12.7317 26.2862 14.3547 26.6662 16 26.6662C17.6453 26.6662 19.2683 26.2862 20.7427 25.556V25.5493C20.2944 24.6786 19.6143 23.9486 18.7774 23.4399C17.9405 22.9313 16.9793 22.6637 16 22.6667ZM16 20C17.4189 20.0016 18.8119 20.3796 20.037 21.0955C21.2621 21.8113 22.2753 22.8393 22.9733 24.0747L22.992 24.0573L23.0107 24.0413L22.988 24.0613L22.9747 24.072C24.6212 22.6495 25.7933 20.7575 26.3337 18.6497C26.8742 16.542 26.7571 14.3194 25.9982 12.2801C25.2393 10.2409 23.8749 8.48245 22.088 7.24082C20.3011 5.9992 18.1772 5.33374 16.0013 5.33374C13.8254 5.33374 11.7016 5.9992 9.91467 7.24082C8.12779 8.48245 6.76337 10.2409 6.00446 12.2801C5.24556 14.3194 5.12847 16.542 5.66891 18.6497C6.20935 20.7575 7.38146 22.6495 9.028 24.072C9.72645 22.8373 10.7399 21.8098 11.9649 21.0945C13.1899 20.3791 14.5827 20.0015 16.0013 20H16ZM16 18.6667C14.5855 18.6667 13.229 18.1048 12.2288 17.1046C11.2286 16.1044 10.6667 14.7478 10.6667 13.3333C10.6667 11.9188 11.2286 10.5623 12.2288 9.56209C13.229 8.56189 14.5855 7.99999 16 7.99999C17.4145 7.99999 18.771 8.56189 19.7712 9.56209C20.7714 10.5623 21.3333 11.9188 21.3333 13.3333C21.3333 14.7478 20.7714 16.1044 19.7712 17.1046C18.771 18.1048 17.4145 18.6667 16 18.6667ZM16 10.6667C15.2928 10.6667 14.6145 10.9476 14.1144 11.4477C13.6143 11.9478 13.3333 12.6261 13.3333 13.3333C13.3333 14.0406 13.6143 14.7188 14.1144 15.2189C14.6145 15.719 15.2928 16 16 16C16.7072 16 17.3855 15.719 17.8856 15.2189C18.3857 14.7188 18.6667 14.0406 18.6667 13.3333C18.6667 12.6261 18.3857 11.9478 17.8856 11.4477C17.3855 10.9476 16.7072 10.6667 16 10.6667Z" fill="#C9C9C9"/>
</svg>
