<svg width="28" height="28" viewBox="0 0 28 28" fill="none" xmlns="http://www.w3.org/2000/svg">
<path d="M14 28C14.8527 28.0003 15.6762 27.6893 16.3158 27.1254C16.9554 26.5615 17.3672 25.7835 17.4737 24.9375C17.5035 24.6978 17.304 24.5 17.0625 24.5H10.9375C10.696 24.5 10.4965 24.6978 10.5262 24.9375C10.6328 25.7835 11.0446 26.5615 11.6842 27.1254C12.3238 27.6893 13.1473 28.0003 14 28Z" fill="#C9C9C9"/>
<path fill-rule="evenodd" clip-rule="evenodd" d="M14 2.625C12.3756 2.625 10.8176 3.27031 9.66898 4.41897C8.52032 5.56763 7.87501 7.12555 7.87501 8.75V13.9073C7.87501 14.5127 7.69651 15.1025 7.36051 15.6047L4.38026 20.0777C4.37682 20.0829 4.37499 20.089 4.37501 20.0952L4.37676 20.1058C4.37676 20.1093 4.38026 20.1127 4.38376 20.1162C4.38672 20.1193 4.3903 20.1217 4.39426 20.1232L4.40651 20.125H23.5935L23.6058 20.1232C23.6097 20.1217 23.6133 20.1194 23.6163 20.1162C23.6194 20.1133 23.6218 20.1097 23.6233 20.1058L23.625 20.0935C23.6251 20.0873 23.6233 20.0811 23.6198 20.076L20.6395 15.6065C20.3043 15.1038 20.1253 14.5132 20.125 13.909V8.75C20.125 7.12555 19.4797 5.56763 18.331 4.41897C17.1824 3.27031 15.6245 2.625 14 2.625ZM5.25001 8.75C5.25001 6.42936 6.17188 4.20376 7.81282 2.56282C9.45376 0.921872 11.6794 0 14 0C16.3207 0 18.5462 0.921872 20.1872 2.56282C21.8281 4.20376 22.75 6.42936 22.75 8.75V13.9073C22.75 13.9948 22.7763 14.0788 22.8235 14.1505L25.8038 18.6217C26.07 19.0218 26.2227 19.4866 26.2457 19.9665C26.2686 20.4465 26.161 20.9237 25.9342 21.3474C25.7074 21.771 25.3699 22.1252 24.9577 22.3722C24.5455 22.6192 24.074 22.7498 23.5935 22.75H4.40651C3.9257 22.75 3.45391 22.6195 3.04145 22.3724C2.62899 22.1253 2.29132 21.7709 2.06446 21.347C1.83759 20.923 1.73002 20.4455 1.75324 19.9653C1.77645 19.485 1.92956 19.0201 2.19626 18.62L5.17651 14.1505C5.22453 14.0785 5.25011 13.9938 5.25001 13.9073V8.75Z" fill="#C9C9C9"/>
</svg>
