<svg xmlns="http://www.w3.org/2000/svg" width="68" height="18" viewBox="425 347 68 18" xmlns:v="https://vecta.io/nano"><style><![CDATA[.B{dominant-baseline:text-after-edge}.C{direction:ltr}.D{unicode-bidi:normal}.E{word-spacing:0px}.F{writing-mode:horizontal-tb}.G{font-family:Roboto-regular, sans-serif}.H{fill:#fff}.I{text-decoration:none solid rgb(33, 37, 41)}.J{fill:#212529}.K{text-decoration:none solid rgb(255, 255, 255)}.L{font-size:14px}.M{font-weight:700}.N{font-size:18px}.O{font-size:16px}.P{font-size:12px}.Q{text-decoration:none solid rgb(150, 150, 150)}.R{fill:#969696}.S{font-size:15px}.T{text-decoration:none solid rgb(159, 159, 159)}.U{fill:#9f9f9f}.V{opacity:0}.W{text-decoration:none solid rgba(59, 59, 61, 0.81)}.X{fill:rgba(59, 59, 61, 0.81)}.Y{opacity:.25}.Z{font-family:Roboto-bold}.a{text-decoration:none solid rgb(233, 233, 233)}.b{fill:#e9e9e9}.c{text-decoration:none solid rgb(0, 0, 0)}.d{fill:rgba(0, 0, 0, 0.314)}.e{stroke:rgba(0, 0, 0, 0.2)}.f{text-decoration:underline solid rgb(13, 110, 253)}.g{text-decoration:none solid rgb(0, 175, 240)}]]></style><g mask="url(#Q)"><path d="M0-56h1291.2v5558H0z" class="H"/><g opacity=".5"><path d="M0 0h1291.2v952H0z"/></g><g mask="url(#A)"><path d="M0 0h1291.2v952H0z" class="d"/><mask id="A"><path d="M0 0h1291.2v952H0z" class="H"/></mask><g mask="url(#B)"><mask id="B"><path d="M270.6 28h750v511h-750z" class="H"/></mask><rect width="750" height="511" x="270.6" y="28" rx="4.8" class="H e"/><rect width="348" height="377" x="287.6" y="85" fill="rgba(0, 0, 0, 0)" stroke="#e9e9e9" rx="4"/><text font-size="13" letter-spacing="normal" class="B C D E F G I J M"><tspan xml:space="preserve" x="328.6" y="364.05" textLength="188.05001831054688" lengthAdjust="spacingAndGlyphs">Full access to this user's content</tspan></text><g mask="url(#C)"><mask id="C"><path d="M656.6 86h346v375h-346z" class="H"/></mask><g mask="url(#D)" class="V"><mask id="D"/></g><g mask="url(#E)" class="V"><mask id="E"/></g><g mask="url(#F)" class="V"><mask id="F"/></g><g mask="url(#G)" class="V"><mask id="G"/><g mask="url(#H)"><mask id="H"/></g><g mask="url(#I)"><mask id="I"/></g></g><g mask="url(#J)" class="V"><mask id="J"/></g><g mask="url(#K)" class="V"><mask id="K"/></g><g mask="url(#L)"><mask id="L"><path d="M679.6 278.375h12v9h-12z" class="H"/></mask></g></g><g mask="url(#M)" class="Y"><mask id="M"><path d="M287.6 478h716v1h-716z" class="H"/></mask></g></g></g><g mask="url(#N)"><path d="M0 0h1291.2v952H0z" class="d"/><mask id="N"><path d="M0 0h1291.2v952H0z" class="H"/></mask><g mask="url(#O)"><mask id="O"><path d="M270.6 28h750v433.825h-750z" class="H"/></mask><rect width="750" height="433.825" x="270.6" y="28" rx="4.8" class="H e"/><g opacity=".5"><g mask="url(#P)"><mask id="P"><path d="M994.6 62h1v1h-1z" class="H"/></mask></g></g><text letter-spacing="normal" class="B C D E F G L W X"><tspan xml:space="preserve" x="295.6" y="363.813" textLength="203.39999389648438" lengthAdjust="spacingAndGlyphs">organization number HE434459, </tspan></text></g></g><mask id="Q"><path d="M0-56h1291.2v5558H0z" class="H"/></mask><g stroke-linecap="square" stroke="#e9e9e9"><path d="M895.6 8v5494M395.6 8v5494"/></g><text letter-spacing="normal" class="B C D E F G I J O"><tspan xml:space="preserve" x="412.6" y="380.6" textLength="442.6250305175781" lengthAdjust="spacingAndGlyphs">This is her bio. irure ex duis ea quis id quis ad et. Sunt qui esse </tspan></text><g mask="url(#R)"><mask id="R"><path d="M396.6 1010h498v880h-498z" class="H"/></mask></g><g mask="url(#S)" class="Y"><mask id="S"><path d="M396.6 1994h498v1h-498z" class="H"/></mask></g><g mask="url(#T)"><mask id="T"><path d="M396.6 2171h498v880h-498z" class="H"/></mask></g><g mask="url(#U)" class="Y"><mask id="U"><path d="M396.6 3155h498v1h-498z" class="H"/></mask></g><g mask="url(#V)"><mask id="V"><path d="M396.6 3332h498v880h-498z" class="H"/></mask></g><g mask="url(#W)" class="Y"><mask id="W"><path d="M396.6 4316h498v1h-498z" class="H"/></mask></g><g mask="url(#X)"><mask id="X"><path d="M396.6 4493h498v880h-498z" class="H"/></mask></g><g mask="url(#Y)" class="Y"><mask id="Y"><path d="M396.6 5477h498v1h-498z" class="H"/></mask></g><g mask="url(#Z)"><mask id="Z"><g class="H"><path d="M928.6 320h120v130h-120z"/><path d="M958.6 346h60v60h-60z"/></g></mask></g><g mask="url(#a)"><mask id="a"><g class="H"><path d="M1056.6 320h120v130h-120z"/><path d="M1086.6 346h60v60h-60z"/></g></mask></g></g><defs ><style>@font-face{font-family:Roboto-regular;src:url("http://localhost:4200/roboto-v30-latin-regular.woff")} @font-face{font-family:Roboto-bold;src:url("http://localhost:4200/roboto-v30-latin-700.woff")}</style></defs></svg>