<svg xmlns="http://www.w3.org/2000/svg" xmlns:xlink="http://www.w3.org/1999/xlink" width="175" height="17" viewBox="381 347 175 17" xmlns:v="https://vecta.io/nano"><style><![CDATA[.B{dominant-baseline:text-after-edge}.C{direction:ltr}.D{unicode-bidi:normal}.E{word-spacing:0px}.F{writing-mode:horizontal-tb}.G{font-family:Roboto-regular, sans-serif}.H{font-size:14px}.I{text-decoration:none solid rgba(59, 59, 61, 0.81)}.J{fill:rgba(59, 59, 61, 0.81)}.K{font-weight:700}.L{fill:#fff}.M{text-decoration:none solid rgb(33, 37, 41)}.N{fill:#212529}.O{text-decoration:none solid rgb(255, 255, 255)}.P{font-size:18px}.Q{font-size:16px}.R{font-size:15px}.S{font-size:12px}.T{text-decoration:none solid rgb(150, 150, 150)}.U{fill:#969696}.V{text-decoration:none solid rgb(159, 159, 159)}.W{fill:#9f9f9f}.X{opacity:0}.Y{opacity:.25}.Z{font-family:Roboto-bold}.a{text-decoration:none solid rgb(233, 233, 233)}.b{fill:#e9e9e9}.c{text-decoration:none solid rgb(0, 0, 0)}.d{fill:rgba(0, 0, 0, 0.314)}.e{stroke:rgba(0, 0, 0, 0.2)}.f{text-decoration:underline solid rgb(13, 110, 253)}.g{text-decoration:none solid rgb(0, 175, 240)}]]></style><g mask="url(#R)"><path d="M0 0h1471.2v5558H0z" class="L"/><g opacity=".5"><path d="M0 0h1471.2v952H0z"/></g><g mask="url(#A)"><path d="M0 0h1471.2v952H0z" class="d"/><mask id="A"><path d="M0 0h1471.2v952H0z" class="L"/></mask><g mask="url(#B)"><mask id="B"><path d="M360.6 28h750v511h-750z" class="L"/></mask><rect width="750" height="511" x="360.6" y="28" rx="4.8" class="L e"/><rect width="348" height="377" x="377.6" y="85" fill="rgba(0, 0, 0, 0)" stroke="#e9e9e9" rx="4"/><image xlink:href="http://localhost:4200/assets/icons/bi_check.svg" x="394.6" y="345" width="24" height="24"/><text font-size="13" letter-spacing="normal" class="B C D E F G K M N"><tspan xml:space="preserve" x="418.6" y="364.05" textLength="188.05001831054688" lengthAdjust="spacingAndGlyphs">Full access to this user's content</tspan></text><g mask="url(#C)"><mask id="C"><path d="M746.6 86h346v375h-346z" class="L"/></mask><g mask="url(#D)" class="X"><mask id="D"/></g><g mask="url(#E)" class="X"><mask id="E"/></g><g mask="url(#F)" class="X"><mask id="F"/></g><g mask="url(#G)" class="X"><mask id="G"/><g mask="url(#H)"><mask id="H"/></g><g mask="url(#I)"><mask id="I"/></g></g><g mask="url(#J)" class="X"><mask id="J"/></g><g mask="url(#K)" class="X"><mask id="K"/></g><g mask="url(#L)"><mask id="L"><path d="M769.6 278.375h12v9h-12z" class="L"/></mask></g></g><g mask="url(#M)" class="Y"><mask id="M"><path d="M377.6 478h716v1h-716z" class="L"/></mask></g></g></g><g mask="url(#N)"><path d="M0 0h1471.2v952H0z" class="d"/><mask id="N"><path d="M0 0h1471.2v952H0z" class="L"/></mask><g mask="url(#O)"><mask id="O"><path d="M360.6 28h750v656h-750z" class="L"/></mask><rect width="750" height="656" x="360.6" y="28" rx="4.8" class="L e"/><g opacity=".5"><g mask="url(#P)"><mask id="P"><path d="M1084.6 62h1v1h-1z" class="L"/></mask></g></g><g mask="url(#Q)"><mask id="Q"><path d="M361.6 98h748v585h-748z" class="L"/></mask><text letter-spacing="normal" class="B C D E F G H I J K"><tspan xml:space="preserve" x="385.6" y="364.4" textLength="168.68753051757812" lengthAdjust="spacingAndGlyphs">Silvanus Technologies Ltd: </tspan></text><image xlink:href="http://localhost:4200/assets/images/PlatformOnlyfansScreenshot4.svg" x="554.288" y="345.063" width="189" height="20.875"/></g></g></g><mask id="R"><path d="M0 0h1471.2v5558H0z" class="L"/></mask><g stroke-linecap="square" stroke="#e9e9e9"><path d="M985.6 64v5494M485.6 64v5494"/></g><text letter-spacing="normal" class="B C D E F K M N P Z"><tspan xml:space="preserve" x="502.6" y="364" textLength="84.58749389648438" lengthAdjust="spacingAndGlyphs">Ava Knoxx</tspan></text><g mask="url(#S)"><mask id="S"><path d="M486.6 1066h498v880h-498z" class="L"/></mask></g><g mask="url(#T)" class="Y"><mask id="T"><path d="M486.6 2050h498v1h-498z" class="L"/></mask></g><g mask="url(#U)"><mask id="U"><path d="M486.6 2227h498v880h-498z" class="L"/></mask></g><g mask="url(#V)" class="Y"><mask id="V"><path d="M486.6 3211h498v1h-498z" class="L"/></mask></g><g mask="url(#W)"><mask id="W"><path d="M486.6 3388h498v880h-498z" class="L"/></mask></g><g mask="url(#X)" class="Y"><mask id="X"><path d="M486.6 4372h498v1h-498z" class="L"/></mask></g><g mask="url(#Y)"><mask id="Y"><path d="M486.6 4549h498v880h-498z" class="L"/></mask></g><g mask="url(#Z)" class="Y"><mask id="Z"><path d="M486.6 5533h498v1h-498z" class="L"/></mask></g><g mask="url(#a)"><mask id="a"><g class="L"><path d="M1018.6 376h120v130h-120z"/><path d="M1048.6 402h60v60h-60z"/></g></mask></g><g mask="url(#b)"><mask id="b"><g class="L"><path d="M1146.6 376h120v130h-120z"/><path d="M1176.6 402h60v60h-60z"/></g></mask></g></g><defs ><style>@font-face{font-family:Roboto-regular;src:url("http://localhost:4200/roboto-v30-latin-regular.woff")} @font-face{font-family:Roboto-bold;src:url("http://localhost:4200/roboto-v30-latin-700.woff")}</style></defs></svg>