<svg xmlns="http://www.w3.org/2000/svg" width="176" height="16" viewBox="1005 337 176 16" xmlns:v="https://vecta.io/nano"><style><![CDATA[.B{dominant-baseline:text-after-edge}.C{direction:ltr}.D{unicode-bidi:normal}.E{word-spacing:0px}.F{writing-mode:horizontal-tb}.G{font-family:Roboto-regular, sans-serif}.H{fill:#fff}.I{text-decoration:none solid rgb(33, 37, 41)}.J{fill:#212529}.K{text-decoration:none solid rgb(255, 255, 255)}.L{font-weight:700}.M{font-size:14px}.N{font-size:18px}.O{font-size:16px}.P{font-size:12px}.Q{text-decoration:none solid rgb(150, 150, 150)}.R{fill:#969696}.S{font-size:15px}.T{text-decoration:none solid rgb(159, 159, 159)}.U{fill:#9f9f9f}.V{opacity:0}.W{opacity:.25}.X{text-decoration:none solid rgba(59, 59, 61, 0.81)}.Y{fill:rgba(59, 59, 61, 0.81)}.Z{font-family:Roboto-bold}.a{text-decoration:none solid rgb(233, 233, 233)}.b{fill:#e9e9e9}.c{fill:rgba(0, 0, 0, 0)}.d{stroke:#e9e9e9}.e{text-decoration:none solid rgb(0, 0, 0)}.f{fill:rgba(0, 0, 0, 0.314)}.g{stroke:rgba(0, 0, 0, 0.2)}.h{text-decoration:underline solid rgb(13, 110, 253)}.i{text-decoration:none solid rgb(0, 175, 240)}]]></style><g mask="url(#Q)"><path d="M0 0h2048v5558H0z" class="H"/><g opacity=".5"><path d="M0 0h2048v952H0z"/></g><g mask="url(#A)"><path d="M0 0h2048v952H0z" class="f"/><mask id="A"><path d="M0 0h2048v952H0z" class="H"/></mask><g mask="url(#B)"><mask id="B"><path d="M649 28h750v511H649z" class="H"/></mask><rect width="750" height="511" x="649" y="28" rx="4.8" class="H g"/><rect width="348" height="377" x="666" y="85" rx="4" class="c d"/><rect width="348" height="377" x="1034" y="85" rx="4" class="c d"/><g mask="url(#C)"><mask id="C"><path d="M1035 86h346v375h-346z" class="H"/></mask><g mask="url(#D)" class="V"><mask id="D"/></g><g mask="url(#E)" class="V"><mask id="E"/></g><g mask="url(#F)" class="V"><mask id="F"/></g><g mask="url(#G)" class="V"><mask id="G"/><path stroke="#fff" d="M737 196h314v144H737z" class="c"/><g mask="url(#H)"><mask id="H"/></g><g mask="url(#I)"><mask id="I"/></g></g><g mask="url(#J)" class="V"><mask id="J"/></g><g mask="url(#K)" class="V"><mask id="K"/></g><g mask="url(#L)"><mask id="L"><path d="M1058 278.375h12v9h-12z" class="H"/></mask></g><a role="link"/><text letter-spacing="normal" class="B C D E F G I J O"><tspan xml:space="preserve" x="1079" y="337.6" textLength="30.5250244140625" lengthAdjust="spacingAndGlyphs">and </tspan></text><a role="link"><text letter-spacing="normal" fill="#0d6efd" class="B C D E F G O h"><tspan xml:space="preserve" x="1109.525" y="337.6" textLength="97.625" lengthAdjust="spacingAndGlyphs">Privacy Policy</tspan></text></a></g><g mask="url(#M)" class="W"><mask id="M"><path d="M666 478h716v1H666z" class="H"/></mask></g></g></g><g mask="url(#N)"><path d="M0 0h2048v952H0z" class="f"/><mask id="N"><path d="M0 0h2048v952H0z" class="H"/></mask><g mask="url(#O)"><mask id="O"><path d="M649 28h750v411H649z" class="H"/></mask><rect width="750" height="411" x="649" y="28" rx="4.8" class="H g"/><g opacity=".5"><g mask="url(#P)"><mask id="P"><path d="M1373 62h1v1h-1z" class="H"/></mask></g></g><text letter-spacing="normal" class="B C D E F G M X Y"><tspan xml:space="preserve" x="674" y="353.4" textLength="597.5125732421875" lengthAdjust="spacingAndGlyphs">organization number HE434459, with headquarters in Archiepiskopou Makariou Ill, 6017, Cyprus. </tspan></text></g></g><mask id="Q"><path d="M0 0h2048v5558H0z" class="H"/></mask><g stroke-linecap="square" class="d"><path d="M1274 64v5494M774 64v5494"/></g><g mask="url(#R)"><mask id="R"><path d="M775 1066h498v880H775z" class="H"/></mask></g><g mask="url(#S)" class="W"><mask id="S"><path d="M775 2050h498v1H775z" class="H"/></mask></g><g mask="url(#T)"><mask id="T"><path d="M775 2227h498v880H775z" class="H"/></mask></g><g mask="url(#U)" class="W"><mask id="U"><path d="M775 3211h498v1H775z" class="H"/></mask></g><g mask="url(#V)"><mask id="V"><path d="M775 3388h498v880H775z" class="H"/></mask></g><g mask="url(#W)" class="W"><mask id="W"><path d="M775 4372h498v1H775z" class="H"/></mask></g><g mask="url(#X)"><mask id="X"><path d="M775 4549h498v880H775z" class="H"/></mask></g><g mask="url(#Y)" class="W"><mask id="Y"><path d="M775 5533h498v1H775z" class="H"/></mask></g><g mask="url(#Z)"><mask id="Z"><g class="H"><path d="M1307 376h120v130h-120z"/><path d="M1337 402h60v60h-60z"/></g></mask></g><g mask="url(#a)"><mask id="a"><g class="H"><path d="M1435 376h120v130h-120z"/><path d="M1465 402h60v60h-60z"/></g></mask></g></g><defs ><style>@font-face{font-family:Roboto-regular;src:url("http://localhost:4200/roboto-v30-latin-regular.woff")} @font-face{font-family:Roboto-bold;src:url("http://localhost:4200/roboto-v30-latin-700.woff")}</style></defs></svg>