<svg width="32" height="32" viewBox="0 0 32 32" fill="none" xmlns="http://www.w3.org/2000/svg">
<path d="M16 2C8.26875 2 2 8.26875 2 16C2 23.7313 8.26875 30 16 30C23.7313 30 30 23.7313 30 16C30 8.26875 23.7313 2 16 2ZM16 27.625C9.58125 27.625 4.375 22.4188 4.375 16C4.375 9.58125 9.58125 4.375 16 4.375C22.4188 4.375 27.625 9.58125 27.625 16C27.625 22.4188 22.4188 27.625 16 27.625ZM22.2 9.24687C22.0776 9.19905 21.947 9.17582 21.8156 9.1785C21.6843 9.18118 21.5547 9.20972 21.4344 9.2625L12.9656 12.9688L9.2625 21.4375C9.15 21.6938 9.15 21.9844 9.2625 22.2406C9.36875 22.4844 9.56563 22.675 9.81563 22.7719C9.93438 22.8188 10.0562 22.8406 10.1812 22.8406C10.3187 22.8406 10.4531 22.8125 10.5813 22.7563L19.05 19.05L22.7531 10.5813C22.8072 10.4577 22.8357 10.3244 22.837 10.1895C22.8383 10.0547 22.8123 9.92091 22.7606 9.7963C22.709 9.6717 22.6327 9.55881 22.5364 9.4644C22.44 9.36998 22.3256 9.296 22.2 9.24687ZM18.025 16.7L18.8438 17.5187L17.5187 18.8438L16.7 18.025L11.875 20.1375L13.9844 15.3125L13.1875 14.5125L14.5125 13.1875L15.3094 13.9844L20.1375 11.875L18.025 16.7ZM14.5125 13.1875L13.1875 14.5125L13.9844 15.3125L16.7 18.025L17.5187 18.8438L18.8438 17.5187L18.025 16.7L15.3125 13.9844L14.5125 13.1875Z" fill="#C9C9C9"/>
</svg>
