<svg width="13" height="13" viewBox="0 0 13 13" fill="none" xmlns="http://www.w3.org/2000/svg">
<path d="M10.4921 4.48229V4.75312C10.4921 7.48041 8.42292 10.6058 4.63667 10.6058C3.51892 10.6082 2.42492 10.2834 1.48959 9.67146C1.65203 9.69351 1.81588 9.70347 1.97979 9.70125C2.90632 9.7038 3.80679 9.39474 4.53646 8.82375C4.10602 8.8174 3.68853 8.67555 3.34332 8.41835C2.99811 8.16114 2.74276 7.80168 2.61354 7.39104C2.74176 7.41822 2.87248 7.43184 3.00354 7.43167C3.18656 7.43171 3.36875 7.40711 3.54521 7.35854C3.07899 7.2656 2.65956 7.01353 2.35869 6.64547C2.05781 6.2774 1.8942 5.81622 1.89584 5.34083V5.31375C2.18108 5.47308 2.50087 5.56047 2.8275 5.56833C2.39271 5.28221 2.08357 4.84087 1.96326 4.33447C1.84296 3.82807 1.92056 3.29485 2.18021 2.84375C2.69757 3.48007 3.34306 4.00039 4.0747 4.37087C4.80635 4.74136 5.60777 4.95373 6.42688 4.99416C6.38633 4.84045 6.36719 4.68187 6.37 4.52291C6.35475 4.10283 6.46934 3.68825 6.69817 3.33562C6.927 2.983 7.25895 2.70947 7.64882 2.55228C8.03869 2.39509 8.46753 2.36188 8.87695 2.45716C9.28637 2.55245 9.65648 2.77161 9.93688 3.08479C10.3978 2.99178 10.8399 2.82243 11.245 2.58375C11.0914 3.06891 10.7646 3.48056 10.3269 3.74021C10.7357 3.68387 11.1343 3.56894 11.5104 3.39896C11.2379 3.81757 10.8931 4.18439 10.4921 4.48229V4.48229Z" stroke="white" stroke-linecap="round" stroke-linejoin="round"/>
</svg>
