<svg width="12" height="12" viewBox="0 0 12 12" fill="none" xmlns="http://www.w3.org/2000/svg">
<path d="M10.1955 3.345C9.69704 3.2354 9.24615 2.97072 8.9075 2.58895C8.56885 2.20717 8.35984 1.72794 8.31046 1.22V1H6.58546V7.835C6.58581 8.13828 6.49073 8.43398 6.31368 8.68022C6.13664 8.92646 5.8866 9.11075 5.59899 9.20699C5.31139 9.30323 5.00079 9.30653 4.7112 9.21644C4.42161 9.12634 4.16771 8.94741 3.98546 8.705C3.82219 8.49042 3.72221 8.23444 3.69683 7.966C3.67145 7.69756 3.72168 7.42738 3.84185 7.186C3.96202 6.94462 4.14733 6.74168 4.37682 6.60013C4.60631 6.45858 4.87083 6.38406 5.14046 6.385C5.28958 6.38415 5.43796 6.40607 5.58046 6.45V4.7C5.41463 4.67946 5.24752 4.67111 5.08046 4.675C4.46512 4.69144 3.86792 4.88697 3.36201 5.23763C2.85609 5.5883 2.46341 6.07889 2.23205 6.64932C2.00069 7.21975 1.9407 7.84527 2.05942 8.44928C2.17814 9.05329 2.47042 9.60957 2.90046 10.05C3.34121 10.4981 3.90521 10.8051 4.52081 10.9319C5.13641 11.0587 5.77582 10.9997 6.35779 10.7623C6.93976 10.5249 7.43803 10.1199 7.78928 9.59863C8.14052 9.0774 8.3289 8.46353 8.33046 7.835V4.335C9.02619 4.83197 9.86047 5.09782 10.7155 5.095V3.395C10.5475 3.39569 10.3799 3.37894 10.2155 3.345H10.1955Z" fill="white"/>
</svg>
