<svg width="32" height="32" viewBox="0 0 32 32" fill="none" xmlns="http://www.w3.org/2000/svg">
<circle cx="16" cy="16" r="15.5" fill="white" stroke="#E9E9E9"/>
<path d="M22.9627 13.2068L18.4996 12.5582L16.5045 8.51349C16.45 8.40275 16.3604 8.3131 16.2496 8.25861C15.9719 8.1215 15.6344 8.23575 15.4955 8.51349L13.5004 12.5582L9.03731 13.2068C8.91426 13.2244 8.80176 13.2824 8.71563 13.3703C8.6115 13.4774 8.55412 13.6213 8.5561 13.7707C8.55807 13.92 8.61925 14.0624 8.72617 14.1666L11.9553 17.3149L11.1924 21.7604C11.1745 21.8638 11.1859 21.9701 11.2254 22.0674C11.2649 22.1646 11.3308 22.2488 11.4157 22.3105C11.5007 22.3722 11.6012 22.4088 11.7058 22.4163C11.8105 22.4238 11.9152 22.4017 12.008 22.3527L16 20.2539L19.992 22.3527C20.101 22.4108 20.2275 22.4301 20.3488 22.409C20.6547 22.3563 20.8604 22.0662 20.8076 21.7604L20.0447 17.3149L23.2738 14.1666C23.3617 14.0805 23.4197 13.968 23.4373 13.8449C23.4848 13.5373 23.2703 13.2526 22.9627 13.2068ZM18.6859 16.8719L19.3205 20.5686L16 18.8248L12.6795 20.5703L13.3141 16.8736L10.6281 14.2545L14.3406 13.7149L16 10.3522L17.6594 13.7149L21.3719 14.2545L18.6859 16.8719Z" fill="#00AFF0"/>
</svg>
