<svg width="25" height="24" viewBox="0 0 25 24" fill="none" xmlns="http://www.w3.org/2000/svg">
<path d="M3.41667 15.75C3.41667 15.5511 3.49788 15.3603 3.64244 15.2197C3.787 15.079 3.98307 15 4.18751 15H8.8125C9.01694 15 9.21301 15.079 9.35757 15.2197C9.50213 15.3603 9.58334 15.5511 9.58334 15.75C9.58334 15.9489 9.50213 16.1397 9.35757 16.2803C9.21301 16.421 9.01694 16.5 8.8125 16.5H4.18751C3.98307 16.5 3.787 16.421 3.64244 16.2803C3.49788 16.1397 3.41667 15.9489 3.41667 15.75ZM3.41667 11.25C3.41667 11.0511 3.49788 10.8603 3.64244 10.7197C3.787 10.579 3.98307 10.5 4.18751 10.5H14.9792C15.1836 10.5 15.3797 10.579 15.5242 10.7197C15.6688 10.8603 15.75 11.0511 15.75 11.25C15.75 11.4489 15.6688 11.6397 15.5242 11.7803C15.3797 11.921 15.1836 12 14.9792 12H4.18751C3.98307 12 3.787 11.921 3.64244 11.7803C3.49788 11.6397 3.41667 11.4489 3.41667 11.25ZM3.41667 6.75C3.41667 6.55109 3.49788 6.36032 3.64244 6.21967C3.787 6.07902 3.98307 6 4.18751 6H21.1458C21.3503 6 21.5463 6.07902 21.6909 6.21967C21.8355 6.36032 21.9167 6.55109 21.9167 6.75C21.9167 6.94891 21.8355 7.13968 21.6909 7.28033C21.5463 7.42098 21.3503 7.5 21.1458 7.5H4.18751C3.98307 7.5 3.787 7.42098 3.64244 7.28033C3.49788 7.13968 3.41667 6.94891 3.41667 6.75Z" fill="#9F9F9F"/>
</svg>
