<svg width="32" height="32" viewBox="0 0 32 32" fill="none" xmlns="http://www.w3.org/2000/svg">
<circle cx="16" cy="16" r="15.5" fill="white" stroke="#E9E9E9"/>
<path d="M21.7292 14.4375C21.9122 14.4375 22.0885 14.5063 22.2231 14.6303C22.3577 14.7542 22.4408 14.9243 22.4558 15.1067L22.4583 15.1667V21.1042C22.4583 21.7237 22.2182 22.319 21.7886 22.7653C21.359 23.2117 20.7732 23.4742 20.1542 23.4979L20.0625 23.5H11.9375C11.3179 23.5 10.7225 23.26 10.2761 22.8304C9.82966 22.4008 9.56704 21.8149 9.54334 21.1958L9.54167 21.1042V15.1667C9.54176 14.9785 9.61455 14.7977 9.74484 14.662C9.87514 14.5263 10.0528 14.4462 10.2408 14.4384C10.4288 14.4307 10.6125 14.4959 10.7535 14.6204C10.8945 14.745 10.9819 14.9192 10.9975 15.1067L11 15.1667V21.1042C11.0001 21.3416 11.0903 21.5703 11.2524 21.7438C11.4145 21.9174 11.6364 22.0229 11.8733 22.0392L11.9375 22.0417H20.0625C20.3001 22.0417 20.5288 21.9515 20.7024 21.7894C20.876 21.6273 20.9817 21.4053 20.9979 21.1683L21 21.1042V15.1667C21 14.7638 21.3263 14.4375 21.7292 14.4375ZM15.7913 8.61125L15.8533 8.60542L15.9263 8.60458L15.9904 8.61L16.0646 8.62333L16.0933 8.63083C16.1746 8.65333 16.2529 8.69042 16.3238 8.74208L16.3738 8.78167L16.4125 8.8175L19.6533 12.0583C19.7866 12.1906 19.8636 12.3692 19.8685 12.5568C19.8734 12.7445 19.8057 12.9268 19.6795 13.0658C19.5533 13.2048 19.3784 13.2898 19.1911 13.3031C19.0039 13.3164 18.8187 13.2569 18.6742 13.1371L18.6221 13.0896L16.625 11.0925V19.125C16.625 19.3081 16.5561 19.4844 16.4321 19.619C16.308 19.7537 16.1379 19.8367 15.9554 19.8517L15.8958 19.8542C15.7128 19.8542 15.5364 19.7853 15.4018 19.6612C15.2672 19.5372 15.1841 19.367 15.1692 19.1846L15.1667 19.125V11.0942L13.1717 13.09C13.0435 13.2181 12.8722 13.2939 12.6912 13.3026C12.5102 13.3113 12.3324 13.2523 12.1925 13.1371L12.1404 13.0896C12.0122 12.9615 11.9363 12.7902 11.9276 12.6092C11.9188 12.4281 11.9777 12.2503 12.0929 12.1104L12.1404 12.0583L15.3704 8.8275C15.3938 8.80338 15.4187 8.78083 15.445 8.76L15.4921 8.72667C15.5079 8.71542 15.5242 8.70542 15.5413 8.69583L15.5492 8.69208C15.6243 8.65092 15.7061 8.62354 15.7908 8.61125H15.7913Z" fill="#00AFF0"/>
</svg>
